<?xml version="1.0" standalone="no"?>
<!DOCTYPE svg PUBLIC "-//W3C//DTD SVG 20010904//EN"
 "http://www.w3.org/TR/2001/REC-SVG-20010904/DTD/svg10.dtd">
<svg version="1.0" xmlns="http://www.w3.org/2000/svg"
 width="225.000000pt" height="225.000000pt" viewBox="0 0 225.000000 225.000000"
 preserveAspectRatio="xMidYMid meet">

<g transform="translate(0.000000,225.000000) scale(0.100000,-0.100000)"
fill="#000000" stroke="none">
<path d="M1000 2060 c0 -13 9 -43 21 -67 42 -87 61 -319 40 -508 l-6 -60 -245
-32 c-135 -17 -319 -39 -408 -47 -90 -8 -166 -17 -169 -20 -11 -10 20 -37 83
-72 l63 -35 208 41 c237 46 443 79 447 71 2 -3 -9 -104 -23 -224 -20 -164 -30
-221 -41 -226 -8 -5 -54 -16 -102 -24 -75 -14 -94 -14 -140 -3 -140 36 -158
30 -111 -37 59 -86 100 -204 138 -397 35 -177 86 -219 133 -107 6 15 17 27 24
27 7 0 69 7 138 15 69 8 197 22 285 30 178 17 235 29 235 50 0 8 -17 33 -37
56 l-36 40 22 47 c36 74 108 177 148 212 32 28 35 35 27 58 -5 14 -28 40 -50
57 -48 37 -173 80 -206 71 -13 -3 -66 -17 -118 -30 -92 -25 -239 -51 -244 -44
-4 4 81 438 85 442 15 13 326 29 571 31 257 2 301 5 323 19 14 9 25 22 25 29
0 21 -71 85 -114 102 -59 25 -137 20 -436 -29 -349 -56 -350 -56 -350 -48 0
50 45 326 65 402 l27 100 -22 35 c-33 53 -98 87 -181 93 -67 5 -69 4 -69 -18z
m410 -1210 c25 -25 26 -78 4 -186 -20 -99 -45 -148 -81 -162 -47 -19 -143 -40
-253 -55 -193 -28 -198 -28 -204 -9 -5 20 -54 252 -62 297 -3 17 -8 37 -10 46
-4 14 6 18 53 23 32 4 126 18 208 31 251 40 317 43 345 15z"/>
</g>
</svg>
